<?xml version="1.0" encoding="UTF-8"?>
<svg xmlns="http://www.w3.org/2000/svg" xmlns:xlink="http://www.w3.org/1999/xlink" id="Layer_1" data-name="Layer 1" viewBox="0 0 209.79 50.91">
  <defs>
    <linearGradient id="linear-gradient" x1="23.07" y1="42.33" x2="23.07" y2="42.33" gradientUnits="userSpaceOnUse">
      <stop offset="0" stop-color="#01c6fd"></stop>
      <stop offset="1" stop-color="#110ffd"></stop>
    </linearGradient>
    <linearGradient id="linear-gradient-2" x1="23.86" y1="40.52" x2="23.86" y2="40.52" xlink:href="#linear-gradient"></linearGradient>
  </defs>
  <polygon points="29.82 43.91 30.01 43.91 13.64 8.82 0 8.82 18.7 48.92 29.79 48.29 29.82 43.91" fill="#110ffd"></polygon>
  <path d="M43.76,28.66l2.9-5.43-1.9-.88-.7,1.46L42.38,23l1.45-3.09-1.65-.77-.77,1.63-.8-.37L40,21.8,38.27,21l.64-1.38-1.67-.78-.4.82L35.46,19a3,3,0,0,1-.15.26L29.05,30.93c-1.72,3.18-6,11.4-9.64,18.27l13.36,0,6.49-12.09-1-.47c.27-.56.53-1.11.79-1.68l1.07.49c.92-1.71,1.82-3.4,2.73-5.11l-1.5-.72.79-1.68Zm-10.21-.88L31.87,27c.26-.57.52-1.12.79-1.69l1.69.79Zm2.5,2.4-1.69-.8.8-1.69,1.68.8C36.58,29.06,36.32,29.61,36.05,30.18Zm.24-4.45-1.69-.8.8-1.69,1.68.8Zm2.62,8.8-1.69-.8.8-1.68,1.68.79C39.44,33.41,39.18,34,38.91,34.53Zm1-4.77L38.26,29,39,27.3l-1.66-.8c.26-.56.52-1.12.8-1.69l1.66.81-.76,1.67,1.66.78Zm-.1-4.14.77-1.69,1.7.8-.8,1.69Z" transform="translate(-0.71 -0.27)" fill="#01c6fd"></path>
  <path d="M41.84,15.68c-.54-.3-.82-.48-1.36-.77l2.59-4.77c1.26.68,2.28,1.26,3.56,1.95l-1.24,2.32,1.18.65-1.75,3.26-1.6-.86.88-1.67-1.79-1Z" transform="translate(-0.71 -0.27)" fill="#01c6fd"></path>
  <path d="M37.65,14.55l1.61.86L38.4,17l-1.61-.86Z" transform="translate(-0.71 -0.27)" fill="#01c6fd"></path>
  <path d="M42.57,5.37l1.62.83-.83,1.62L41.74,7Z" transform="translate(-0.71 -0.27)" fill="#01c6fd"></path>
  <path d="M42.83,17.5,42,19.12l-1.62-.85.84-1.61Z" transform="translate(-0.71 -0.27)" fill="#01c6fd"></path>
  <path d="M50.24,16.1l-.85,1.61-1.62-.85.85-1.61Z" transform="translate(-0.71 -0.27)" fill="#01c6fd"></path>
  <path d="M47.92,9.3l-1.63-.77.76-1.63,1.63.77Z" transform="translate(-0.71 -0.27)" fill="#01c6fd"></path>
  <path d="M45.55,21l.86-1.58,1.58.86-.86,1.58Z" transform="translate(-0.71 -0.27)" fill="#01c6fd"></path>
  <path d="M45.21.27l1.58.87-.87,1.57-1.57-.86Z" transform="translate(-0.71 -0.27)" fill="#01c6fd"></path>
  <path d="M40.71,9.16l1.57.87-.86,1.58-1.57-.87Z" transform="translate(-0.71 -0.27)" fill="#01c6fd"></path>
  <path d="M50.31,13.11l-1.62-.77.76-1.62,1.63.77Z" transform="translate(-0.71 -0.27)" fill="#01c6fd"></path>
  <path d="M54.74,7.76,53.9,9.34,52.31,8.5l.84-1.59Z" transform="translate(-0.71 -0.27)" fill="#01c6fd"></path>
  <path d="M23.07,42.33" transform="translate(-0.71 -0.27)" fill="url(#linear-gradient)"></path>
  <path d="M23.86,40.52" transform="translate(-0.71 -0.27)" fill="url(#linear-gradient-2)"></path>
  <path d="M90.78,51.19a3.42,3.42,0,0,1-2.57-1.07,4,4,0,0,1,0-5.28,3.38,3.38,0,0,1,2.57-1.07,3.33,3.33,0,0,1,1.72.46,3.26,3.26,0,0,1,1.22,1.25l-1,.59a2,2,0,0,0-.8-.84,2.23,2.23,0,0,0-1.17-.32,2.36,2.36,0,0,0-1.78.73,2.83,2.83,0,0,0,0,3.68,2.35,2.35,0,0,0,1.78.72A2.23,2.23,0,0,0,92,49.73a2,2,0,0,0,.8-.84l1,.58a3.16,3.16,0,0,1-1.21,1.25A3.38,3.38,0,0,1,90.78,51.19Z" transform="translate(-0.71 -0.27)" fill="#4c4c4c"></path>
  <path d="M101.9,50.11a3.48,3.48,0,0,1-5,0,3.87,3.87,0,0,1,0-5.26,3.48,3.48,0,0,1,5,0,3.85,3.85,0,0,1,0,5.26Zm-4.24-.8a2.4,2.4,0,0,0,3.45,0,2.76,2.76,0,0,0,0-3.67,2.4,2.4,0,0,0-3.45,0,2.76,2.76,0,0,0,0,3.67Z" transform="translate(-0.71 -0.27)" fill="#4c4c4c"></path>
  <path d="M112.09,43.9v7.16H111V46l-2.08,3.59h-.14L106.66,46v5.11h-1.13V43.9h1.21l2.07,3.58,2.07-3.58Z" transform="translate(-0.71 -0.27)" fill="#4c4c4c"></path>
  <path d="M121.58,43.9v7.16h-1.12V46l-2.09,3.59h-.13L116.15,46v5.11H115V43.9h1.21l2.07,3.58,2.07-3.58Z" transform="translate(-0.71 -0.27)" fill="#4c4c4c"></path>
  <path d="M128.92,50.51a2.65,2.65,0,0,1-1.87.68,2.62,2.62,0,0,1-1.87-.68,2.39,2.39,0,0,1-.73-1.83V43.9h1.13v4.71a1.45,1.45,0,0,0,.37,1,1.43,1.43,0,0,0,1.1.38,1.44,1.44,0,0,0,1.1-.38,1.49,1.49,0,0,0,.37-1V43.9h1.12v4.78A2.39,2.39,0,0,1,128.92,50.51Z" transform="translate(-0.71 -0.27)" fill="#4c4c4c"></path>
  <path d="M136.61,43.9h1.13v7.16h-.88l-3.23-4.86v4.86H132.5V43.9h.86l3.25,4.89Z" transform="translate(-0.71 -0.27)" fill="#4c4c4c"></path>
  <path d="M140.67,43.9h1.13v7.16h-1.13Z" transform="translate(-0.71 -0.27)" fill="#4c4c4c"></path>
  <path d="M148,51.19a3.42,3.42,0,0,1-2.57-1.07,3.93,3.93,0,0,1,0-5.28A3.38,3.38,0,0,1,148,43.77a3.33,3.33,0,0,1,1.72.46,3.26,3.26,0,0,1,1.22,1.25l-1,.59a2,2,0,0,0-.8-.84,2.23,2.23,0,0,0-1.17-.32,2.34,2.34,0,0,0-1.78.73,2.83,2.83,0,0,0,0,3.68A2.34,2.34,0,0,0,148,50a2.23,2.23,0,0,0,1.17-.31,2.08,2.08,0,0,0,.8-.84l1,.58a3.16,3.16,0,0,1-1.21,1.25A3.38,3.38,0,0,1,148,51.19Z" transform="translate(-0.71 -0.27)" fill="#4c4c4c"></path>
  <path d="M157.84,51.06l-.49-1.45h-2.91L154,51.06h-1.22l2.48-7.16h1.35l2.48,7.16Zm-3-2.55H157l-1.08-3.23Z" transform="translate(-0.71 -0.27)" fill="#4c4c4c"></path>
  <path d="M165.31,43.9V45h-1.92v6h-1.13V45h-1.94V43.9Z" transform="translate(-0.71 -0.27)" fill="#4c4c4c"></path>
  <path d="M167.71,43.9h1.13v7.16h-1.13Z" transform="translate(-0.71 -0.27)" fill="#4c4c4c"></path>
  <path d="M177.51,50.11a3.49,3.49,0,0,1-5,0,3.87,3.87,0,0,1,0-5.26,3.49,3.49,0,0,1,5,0,3.87,3.87,0,0,1,0,5.26Zm-4.25-.8a2.4,2.4,0,0,0,3.45,0,2.76,2.76,0,0,0,0-3.67,2.4,2.4,0,0,0-3.45,0,2.76,2.76,0,0,0,0,3.67Z" transform="translate(-0.71 -0.27)" fill="#4c4c4c"></path>
  <path d="M185.25,43.9h1.12v7.16h-.88l-3.23-4.86v4.86h-1.13V43.9H182l3.26,4.89Z" transform="translate(-0.71 -0.27)" fill="#4c4c4c"></path>
  <polygon points="72.81 35.53 64.14 10.56 68.64 10.56 75.27 30.54 81.94 10.56 86.4 10.56 77.73 35.53 72.81 35.53" fill="#001157"></polygon>
  <rect x="87.8" y="17.7" width="3.85" height="17.83" fill="#001157"></rect>
  <rect x="87.8" y="10.54" width="3.85" height="3.94" fill="#001157"></rect>
  <path d="M99,22.87a1.53,1.53,0,0,0,1,1.39,14.94,14.94,0,0,0,2.38.94l2.83.87a4.91,4.91,0,0,1,2.43,1.66,4.68,4.68,0,0,1,1,3.05,4.74,4.74,0,0,1-2,4,8.19,8.19,0,0,1-5,1.46,8.78,8.78,0,0,1-4.52-1.11,6.43,6.43,0,0,1-2.75-3.06l3.32-1.93a3.77,3.77,0,0,0,4,2.57c2,0,3-.67,3-2a1.59,1.59,0,0,0-1-1.39,12.67,12.67,0,0,0-2.37-1l-2.83-.88a5.07,5.07,0,0,1-2.44-1.6,4.42,4.42,0,0,1-1-2.94A4.85,4.85,0,0,1,97,19a7.22,7.22,0,0,1,4.66-1.5,7.89,7.89,0,0,1,3.94,1,6.66,6.66,0,0,1,2.66,2.73L105,23a3.79,3.79,0,0,0-5.21-1.56A1.56,1.56,0,0,0,99,22.87Z" transform="translate(-0.71 -0.27)" fill="#001157"></path>
  <rect x="110.04" y="17.7" width="3.85" height="17.83" fill="#001157"></rect>
  <path d="M132.94,20.22a9.43,9.43,0,0,0-16.1,6.67,9,9,0,0,0,2.75,6.67,9.41,9.41,0,0,0,16.08-6.67A9,9,0,0,0,132.94,20.22Zm-2.72,10.7a5.7,5.7,0,0,1-7.92,0,5.46,5.46,0,0,1-1.61-4,5.46,5.46,0,0,1,1.61-4,5.68,5.68,0,0,1,7.92,0,5.46,5.46,0,0,1,1.6,4A5.46,5.46,0,0,1,130.22,30.92Z" transform="translate(-0.71 -0.27)" fill="#001157"></path>
  <path d="M147.35,17.51a6.55,6.55,0,0,1,5,2,7.44,7.44,0,0,1,1.89,5.39v11h-3.85V25.25a4.13,4.13,0,0,0-1.07-3.07,4,4,0,0,0-2.92-1.07,4.37,4.37,0,0,0-3.28,1.27,5.27,5.27,0,0,0-1.25,3.87v9.56H138V18h3.85v2.28A6.07,6.07,0,0,1,147.35,17.51Z" transform="translate(-0.71 -0.27)" fill="#001157"></path>
  <path d="M165.9,19.72h-5.31V31.31a3.43,3.43,0,0,0,.57,2.21,2.42,2.42,0,0,0,1.75.77,17.68,17.68,0,0,0,3-.09v1.61c-2.4.35-4.19.19-5.36-.5s-1.77-2-1.77-4V19.72h-3.92V18h3.92V13.51l1.82-.53v5h5.31Z" transform="translate(-0.71 -0.27)" fill="#021358"></path>
  <path d="M170,21.47A5.91,5.91,0,0,1,176,17.72v1.71a5.93,5.93,0,0,0-4.24,1.63A6.35,6.35,0,0,0,170,25.89v9.92h-1.79V18H170Z" transform="translate(-0.71 -0.27)" fill="#021358"></path>
  <path d="M187.47,17.82a8,8,0,0,0-6.91.77,8.89,8.89,0,0,0-4.43,5.63,9.19,9.19,0,0,0,1.09,7.05,9,9,0,0,0,5.63,4.47,9.13,9.13,0,0,0,7.15-1.1,9.67,9.67,0,0,0,3.47-3.26,7.9,7.9,0,0,0,1.25-4.12h-1.83A6,6,0,0,1,192,30.5a8.24,8.24,0,0,1-8.18,3.63,7.22,7.22,0,0,1-4.5-3l14-8.08c-.05-.08-.11-.21-.2-.38a3.9,3.9,0,0,0-.2-.38A9.61,9.61,0,0,0,187.47,17.82Zm-9.05,11.81a7.36,7.36,0,0,1-.44-5.39,7.14,7.14,0,0,1,3.44-4.17,6.75,6.75,0,0,1,5-.78,7.32,7.32,0,0,1,4.45,3.17Z" transform="translate(-0.71 -0.27)" fill="#021358"></path>
  <polygon points="209.79 35.53 207.36 35.53 197.91 26.77 197.91 35.53 196.13 35.53 196.13 10.56 197.91 10.56 197.91 25.8 206.93 17.7 209.43 17.7 199.84 26.26 209.79 35.53" fill="#021358"></polygon>
  <rect x="110.04" y="10.34" width="3.85" height="3.94" fill="#001157"></rect>
</svg>
